<mxfile host="app.diagrams.net" modified="2021-02-23T18:18:23.928Z" agent="5.0 (Macintosh)" etag="J7YvfmP3CF4QMiRmaZ3A" version="14.4.2" type="github" pages="2">
  <diagram id="9DfaWri5JCvQuDVs0rDR" name="Overview">
    <mxGraphModel dx="1284" dy="676" grid="1" gridSize="10" guides="1" tooltips="1" connect="1" arrows="1" fold="1" page="1" pageScale="1" pageWidth="1600" pageHeight="900" math="0" shadow="0">
      <root>
        <mxCell id="0" />
        <mxCell id="1" parent="0" />
        <mxCell id="aElDboMBdp0-WxFvuQwA-1" style="edgeStyle=orthogonalEdgeStyle;rounded=0;orthogonalLoop=1;jettySize=auto;html=1;exitX=0.5;exitY=1;exitDx=0;exitDy=0;entryX=0.5;entryY=0;entryDx=0;entryDy=0;fontSize=9;" edge="1" parent="1" source="aElDboMBdp0-WxFvuQwA-2" target="aElDboMBdp0-WxFvuQwA-37">
          <mxGeometry relative="1" as="geometry" />
        </mxCell>
        <mxCell id="aElDboMBdp0-WxFvuQwA-2" value="" style="rounded=0;whiteSpace=wrap;html=1;" vertex="1" parent="1">
          <mxGeometry x="230" y="600" width="500" height="80" as="geometry" />
        </mxCell>
        <mxCell id="aElDboMBdp0-WxFvuQwA-3" value="Observable" style="rounded=0;whiteSpace=wrap;html=1;fillColor=#dae8fc;strokeColor=#6c8ebf;" vertex="1" parent="1">
          <mxGeometry x="230" y="600" width="130" height="20" as="geometry" />
        </mxCell>
        <mxCell id="aElDboMBdp0-WxFvuQwA-4" value="Type" style="rounded=0;whiteSpace=wrap;html=1;fillColor=#dae8fc;strokeColor=#6c8ebf;" vertex="1" parent="1">
          <mxGeometry x="360" y="600" width="95" height="20" as="geometry" />
        </mxCell>
        <mxCell id="aElDboMBdp0-WxFvuQwA-5" value="Risk (1-10)" style="rounded=0;whiteSpace=wrap;html=1;fillColor=#dae8fc;strokeColor=#6c8ebf;" vertex="1" parent="1">
          <mxGeometry x="455" y="600" width="95" height="20" as="geometry" />
        </mxCell>
        <mxCell id="aElDboMBdp0-WxFvuQwA-6" value="user@example.com" style="rounded=0;whiteSpace=wrap;html=1;" vertex="1" parent="1">
          <mxGeometry x="230" y="620" width="130" height="20" as="geometry" />
        </mxCell>
        <mxCell id="aElDboMBdp0-WxFvuQwA-7" value="Meta" style="rounded=0;whiteSpace=wrap;html=1;fillColor=#dae8fc;strokeColor=#6c8ebf;" vertex="1" parent="1">
          <mxGeometry x="640" y="600" width="90" height="20" as="geometry" />
        </mxCell>
        <mxCell id="aElDboMBdp0-WxFvuQwA-8" value="user" style="rounded=0;whiteSpace=wrap;html=1;" vertex="1" parent="1">
          <mxGeometry x="360" y="620" width="100" height="20" as="geometry" />
        </mxCell>
        <mxCell id="aElDboMBdp0-WxFvuQwA-9" value="(1) low" style="rounded=0;whiteSpace=wrap;html=1;fillColor=#d5e8d4;strokeColor=#82b366;" vertex="1" parent="1">
          <mxGeometry x="455" y="620" width="95" height="20" as="geometry" />
        </mxCell>
        <mxCell id="aElDboMBdp0-WxFvuQwA-10" value="{...}" style="rounded=0;whiteSpace=wrap;html=1;" vertex="1" parent="1">
          <mxGeometry x="640" y="620" width="90" height="20" as="geometry" />
        </mxCell>
        <mxCell id="aElDboMBdp0-WxFvuQwA-11" value="4.2.2.2" style="rounded=0;whiteSpace=wrap;html=1;" vertex="1" parent="1">
          <mxGeometry x="230" y="640" width="130" height="20" as="geometry" />
        </mxCell>
        <mxCell id="aElDboMBdp0-WxFvuQwA-12" value="ipv4" style="rounded=0;whiteSpace=wrap;html=1;" vertex="1" parent="1">
          <mxGeometry x="360" y="640" width="100" height="20" as="geometry" />
        </mxCell>
        <mxCell id="aElDboMBdp0-WxFvuQwA-13" value="(2) normal" style="rounded=0;whiteSpace=wrap;html=1;fillColor=#fff2cc;strokeColor=#d6b656;" vertex="1" parent="1">
          <mxGeometry x="455" y="640" width="95" height="20" as="geometry" />
        </mxCell>
        <mxCell id="aElDboMBdp0-WxFvuQwA-14" value="{...}" style="rounded=0;whiteSpace=wrap;html=1;" vertex="1" parent="1">
          <mxGeometry x="640" y="640" width="90" height="20" as="geometry" />
        </mxCell>
        <mxCell id="aElDboMBdp0-WxFvuQwA-15" style="edgeStyle=orthogonalEdgeStyle;rounded=0;orthogonalLoop=1;jettySize=auto;html=1;exitX=0.5;exitY=1;exitDx=0;exitDy=0;entryX=0;entryY=0;entryDx=0;entryDy=0;" edge="1" parent="1" source="aElDboMBdp0-WxFvuQwA-16" target="aElDboMBdp0-WxFvuQwA-5">
          <mxGeometry relative="1" as="geometry" />
        </mxCell>
        <mxCell id="aElDboMBdp0-WxFvuQwA-16" value="Input (CRUD)" style="rounded=0;whiteSpace=wrap;html=1;verticalAlign=top;fontStyle=1;fillColor=#d5e8d4;strokeColor=#82b366;" vertex="1" parent="1">
          <mxGeometry x="140" y="310" width="160" height="200" as="geometry" />
        </mxCell>
        <mxCell id="aElDboMBdp0-WxFvuQwA-17" style="edgeStyle=orthogonalEdgeStyle;rounded=0;orthogonalLoop=1;jettySize=auto;html=1;entryX=1;entryY=0.5;entryDx=0;entryDy=0;fontSize=9;" edge="1" parent="1" source="aElDboMBdp0-WxFvuQwA-19" target="aElDboMBdp0-WxFvuQwA-16">
          <mxGeometry relative="1" as="geometry" />
        </mxCell>
        <mxCell id="aElDboMBdp0-WxFvuQwA-18" style="edgeStyle=orthogonalEdgeStyle;rounded=0;orthogonalLoop=1;jettySize=auto;html=1;fontSize=9;" edge="1" parent="1" source="aElDboMBdp0-WxFvuQwA-19">
          <mxGeometry relative="1" as="geometry">
            <mxPoint x="689" y="400" as="targetPoint" />
          </mxGeometry>
        </mxCell>
        <mxCell id="aElDboMBdp0-WxFvuQwA-19" value="Variables" style="rounded=0;whiteSpace=wrap;html=1;verticalAlign=top;fontStyle=1" vertex="1" parent="1">
          <mxGeometry x="350" y="305" width="285" height="190" as="geometry" />
        </mxCell>
        <mxCell id="aElDboMBdp0-WxFvuQwA-20" value="Secure Meter XD (Collection)" style="rounded=0;whiteSpace=wrap;html=1;fontStyle=1;verticalAlign=top;" vertex="1" parent="1">
          <mxGeometry x="690" y="305" width="190" height="215" as="geometry" />
        </mxCell>
        <mxCell id="aElDboMBdp0-WxFvuQwA-21" value="AMP4E (+1)" style="rounded=0;whiteSpace=wrap;html=1;fontSize=9;fillColor=#d5e8d4;strokeColor=#82b366;" vertex="1" parent="1">
          <mxGeometry x="170" y="350" width="100" height="30" as="geometry" />
        </mxCell>
        <mxCell id="aElDboMBdp0-WxFvuQwA-22" value="DUO (+2)" style="rounded=0;whiteSpace=wrap;html=1;fontSize=9;fillColor=#d5e8d4;strokeColor=#82b366;" vertex="1" parent="1">
          <mxGeometry x="170" y="380" width="100" height="30" as="geometry" />
        </mxCell>
        <mxCell id="aElDboMBdp0-WxFvuQwA-23" value="UMB (+1)" style="rounded=0;whiteSpace=wrap;html=1;fontSize=9;fillColor=#d5e8d4;strokeColor=#82b366;" vertex="1" parent="1">
          <mxGeometry x="170" y="410" width="100" height="30" as="geometry" />
        </mxCell>
        <mxCell id="aElDboMBdp0-WxFvuQwA-24" value="CES" style="rounded=0;whiteSpace=wrap;html=1;fontSize=9;fillColor=#d5e8d4;strokeColor=#82b366;" vertex="1" parent="1">
          <mxGeometry x="170" y="440" width="100" height="30" as="geometry" />
        </mxCell>
        <mxCell id="aElDboMBdp0-WxFvuQwA-25" value="Subnet_Whitelist" style="rounded=1;whiteSpace=wrap;html=1;fontSize=9;fillColor=#dae8fc;strokeColor=#6c8ebf;" vertex="1" parent="1">
          <mxGeometry x="370" y="340" width="80" height="35" as="geometry" />
        </mxCell>
        <mxCell id="aElDboMBdp0-WxFvuQwA-26" value="Last Mod." style="rounded=0;whiteSpace=wrap;html=1;fillColor=#dae8fc;strokeColor=#6c8ebf;" vertex="1" parent="1">
          <mxGeometry x="550" y="600" width="90" height="20" as="geometry" />
        </mxCell>
        <mxCell id="aElDboMBdp0-WxFvuQwA-27" value="tz" style="rounded=0;whiteSpace=wrap;html=1;" vertex="1" parent="1">
          <mxGeometry x="550" y="620" width="90" height="20" as="geometry" />
        </mxCell>
        <mxCell id="aElDboMBdp0-WxFvuQwA-28" value="tz" style="rounded=0;whiteSpace=wrap;html=1;" vertex="1" parent="1">
          <mxGeometry x="550" y="640" width="90" height="20" as="geometry" />
        </mxCell>
        <mxCell id="aElDboMBdp0-WxFvuQwA-29" value="Stale_Time" style="rounded=1;whiteSpace=wrap;html=1;fontSize=9;fillColor=#dae8fc;strokeColor=#6c8ebf;" vertex="1" parent="1">
          <mxGeometry x="370" y="380" width="80" height="35" as="geometry" />
        </mxCell>
        <mxCell id="aElDboMBdp0-WxFvuQwA-30" value="GetRisk" style="rounded=0;whiteSpace=wrap;html=1;fontSize=9;fillColor=#d5e8d4;strokeColor=#82b366;" vertex="1" parent="1">
          <mxGeometry x="700" y="340" width="100" height="30" as="geometry" />
        </mxCell>
        <mxCell id="aElDboMBdp0-WxFvuQwA-31" value="RaiseRisk (number)" style="rounded=0;whiteSpace=wrap;html=1;fontSize=9;fillColor=#d5e8d4;strokeColor=#82b366;" vertex="1" parent="1">
          <mxGeometry x="700" y="375" width="100" height="30" as="geometry" />
        </mxCell>
        <mxCell id="aElDboMBdp0-WxFvuQwA-32" value="&lt;div&gt;Public_Subnets&lt;/div&gt;" style="rounded=1;whiteSpace=wrap;html=1;fontSize=9;fillColor=#dae8fc;strokeColor=#6c8ebf;" vertex="1" parent="1">
          <mxGeometry x="452.5" y="380" width="80" height="35" as="geometry" />
        </mxCell>
        <mxCell id="aElDboMBdp0-WxFvuQwA-33" value="Domains" style="rounded=1;whiteSpace=wrap;html=1;fontSize=9;fillColor=#dae8fc;strokeColor=#6c8ebf;" vertex="1" parent="1">
          <mxGeometry x="452.5" y="340" width="80" height="35" as="geometry" />
        </mxCell>
        <mxCell id="aElDboMBdp0-WxFvuQwA-34" value="RemoveStaleEntries" style="rounded=0;whiteSpace=wrap;html=1;fontSize=9;fillColor=#d5e8d4;strokeColor=#82b366;" vertex="1" parent="1">
          <mxGeometry x="700" y="440" width="100" height="30" as="geometry" />
        </mxCell>
        <mxCell id="aElDboMBdp0-WxFvuQwA-35" value="LowerRisk (number)" style="rounded=0;whiteSpace=wrap;html=1;fontSize=9;fillColor=#d5e8d4;strokeColor=#82b366;" vertex="1" parent="1">
          <mxGeometry x="700" y="405" width="100" height="30" as="geometry" />
        </mxCell>
        <mxCell id="aElDboMBdp0-WxFvuQwA-36" value="RiskIncrement" style="rounded=1;whiteSpace=wrap;html=1;fontSize=9;fillColor=#dae8fc;strokeColor=#6c8ebf;" vertex="1" parent="1">
          <mxGeometry x="540" y="340" width="80" height="35" as="geometry" />
        </mxCell>
        <mxCell id="aElDboMBdp0-WxFvuQwA-37" value="Output" style="rounded=0;whiteSpace=wrap;html=1;fontStyle=1;verticalAlign=top;" vertex="1" parent="1">
          <mxGeometry x="290" y="760" width="380" height="220" as="geometry" />
        </mxCell>
        <mxCell id="aElDboMBdp0-WxFvuQwA-38" style="edgeStyle=orthogonalEdgeStyle;rounded=0;orthogonalLoop=1;jettySize=auto;html=1;entryX=0;entryY=0.5;entryDx=0;entryDy=0;fontSize=9;" edge="1" parent="1" source="aElDboMBdp0-WxFvuQwA-39" target="aElDboMBdp0-WxFvuQwA-42">
          <mxGeometry relative="1" as="geometry" />
        </mxCell>
        <mxCell id="aElDboMBdp0-WxFvuQwA-39" value="ScheduledReports" style="rounded=0;whiteSpace=wrap;html=1;fontSize=9;fillColor=#d5e8d4;strokeColor=#82b366;" vertex="1" parent="1">
          <mxGeometry x="300" y="790" width="100" height="30" as="geometry" />
        </mxCell>
        <mxCell id="aElDboMBdp0-WxFvuQwA-40" style="edgeStyle=orthogonalEdgeStyle;rounded=0;orthogonalLoop=1;jettySize=auto;html=1;entryX=0;entryY=0.5;entryDx=0;entryDy=0;fontSize=9;" edge="1" parent="1" source="aElDboMBdp0-WxFvuQwA-41" target="aElDboMBdp0-WxFvuQwA-43">
          <mxGeometry relative="1" as="geometry" />
        </mxCell>
        <mxCell id="aElDboMBdp0-WxFvuQwA-41" value="Notification" style="rounded=0;whiteSpace=wrap;html=1;fontSize=9;fillColor=#d5e8d4;strokeColor=#82b366;" vertex="1" parent="1">
          <mxGeometry x="300" y="830" width="100" height="30" as="geometry" />
        </mxCell>
        <mxCell id="aElDboMBdp0-WxFvuQwA-42" value="Email" style="rounded=1;whiteSpace=wrap;html=1;fontSize=9;" vertex="1" parent="1">
          <mxGeometry x="460" y="795" width="120" height="20" as="geometry" />
        </mxCell>
        <mxCell id="aElDboMBdp0-WxFvuQwA-43" value="Incident/Casebook/Email" style="rounded=1;whiteSpace=wrap;html=1;fontSize=9;" vertex="1" parent="1">
          <mxGeometry x="460" y="835" width="120" height="20" as="geometry" />
        </mxCell>
        <mxCell id="aElDboMBdp0-WxFvuQwA-44" style="edgeStyle=orthogonalEdgeStyle;rounded=0;orthogonalLoop=1;jettySize=auto;html=1;entryX=0;entryY=0.5;entryDx=0;entryDy=0;fontSize=9;" edge="1" parent="1" source="aElDboMBdp0-WxFvuQwA-48" target="aElDboMBdp0-WxFvuQwA-49">
          <mxGeometry relative="1" as="geometry" />
        </mxCell>
        <mxCell id="aElDboMBdp0-WxFvuQwA-45" style="edgeStyle=orthogonalEdgeStyle;rounded=0;orthogonalLoop=1;jettySize=auto;html=1;entryX=0;entryY=0.5;entryDx=0;entryDy=0;fontSize=9;" edge="1" parent="1" source="aElDboMBdp0-WxFvuQwA-48" target="aElDboMBdp0-WxFvuQwA-50">
          <mxGeometry relative="1" as="geometry" />
        </mxCell>
        <mxCell id="aElDboMBdp0-WxFvuQwA-46" style="edgeStyle=orthogonalEdgeStyle;rounded=0;orthogonalLoop=1;jettySize=auto;html=1;entryX=0;entryY=0.5;entryDx=0;entryDy=0;fontSize=9;" edge="1" parent="1" source="aElDboMBdp0-WxFvuQwA-48" target="aElDboMBdp0-WxFvuQwA-51">
          <mxGeometry relative="1" as="geometry" />
        </mxCell>
        <mxCell id="aElDboMBdp0-WxFvuQwA-47" style="edgeStyle=orthogonalEdgeStyle;rounded=0;orthogonalLoop=1;jettySize=auto;html=1;entryX=0;entryY=0.5;entryDx=0;entryDy=0;fontSize=9;" edge="1" parent="1" source="aElDboMBdp0-WxFvuQwA-48" target="aElDboMBdp0-WxFvuQwA-52">
          <mxGeometry relative="1" as="geometry" />
        </mxCell>
        <mxCell id="aElDboMBdp0-WxFvuQwA-48" value="Respond" style="rounded=0;whiteSpace=wrap;html=1;fontSize=9;fillColor=#d5e8d4;strokeColor=#82b366;" vertex="1" parent="1">
          <mxGeometry x="300" y="870" width="100" height="30" as="geometry" />
        </mxCell>
        <mxCell id="aElDboMBdp0-WxFvuQwA-49" value="Umb Enforcement" style="rounded=1;whiteSpace=wrap;html=1;fontSize=9;" vertex="1" parent="1">
          <mxGeometry x="460" y="875" width="120" height="20" as="geometry" />
        </mxCell>
        <mxCell id="aElDboMBdp0-WxFvuQwA-50" value="AAD Group" style="rounded=1;whiteSpace=wrap;html=1;fontSize=9;" vertex="1" parent="1">
          <mxGeometry x="460" y="895" width="120" height="20" as="geometry" />
        </mxCell>
        <mxCell id="aElDboMBdp0-WxFvuQwA-51" value="AMP Triage" style="rounded=1;whiteSpace=wrap;html=1;fontSize=9;" vertex="1" parent="1">
          <mxGeometry x="460" y="915" width="120" height="20" as="geometry" />
        </mxCell>
        <mxCell id="aElDboMBdp0-WxFvuQwA-52" value="CES IMP" style="rounded=1;whiteSpace=wrap;html=1;fontSize=9;" vertex="1" parent="1">
          <mxGeometry x="460" y="935" width="120" height="20" as="geometry" />
        </mxCell>
        <mxCell id="aElDboMBdp0-WxFvuQwA-53" value="Provision?" style="rounded=0;whiteSpace=wrap;html=1;fontSize=9;fillColor=#d5e8d4;strokeColor=#82b366;" vertex="1" parent="1">
          <mxGeometry x="700" y="480" width="100" height="30" as="geometry" />
        </mxCell>
        <mxCell id="aElDboMBdp0-WxFvuQwA-54" value="Manual" style="rounded=0;whiteSpace=wrap;html=1;fontSize=9;fillColor=#d5e8d4;strokeColor=#82b366;" vertex="1" parent="1">
          <mxGeometry x="170" y="470" width="100" height="30" as="geometry" />
        </mxCell>
      </root>
    </mxGraphModel>
  </diagram>
  <diagram id="0eCHN-zJ6OwHbQVBtQSn" name="CRUD API">
    <mxGraphModel dx="1284" dy="676" grid="1" gridSize="10" guides="1" tooltips="1" connect="1" arrows="1" fold="1" page="1" pageScale="1" pageWidth="1600" pageHeight="900" math="0" shadow="0">
      <root>
        <mxCell id="z8kUtgGK6EM0KyuAb-qd-0" />
        <mxCell id="z8kUtgGK6EM0KyuAb-qd-1" parent="z8kUtgGK6EM0KyuAb-qd-0" />
        <mxCell id="YyjC_6df4hxj99kcXPi2-0" value="" style="rounded=0;whiteSpace=wrap;html=1;" vertex="1" parent="z8kUtgGK6EM0KyuAb-qd-1">
          <mxGeometry x="230" y="600" width="500" height="80" as="geometry" />
        </mxCell>
        <mxCell id="YyjC_6df4hxj99kcXPi2-1" value="Observable" style="rounded=0;whiteSpace=wrap;html=1;fillColor=#dae8fc;strokeColor=#6c8ebf;" vertex="1" parent="z8kUtgGK6EM0KyuAb-qd-1">
          <mxGeometry x="230" y="600" width="130" height="20" as="geometry" />
        </mxCell>
        <mxCell id="YyjC_6df4hxj99kcXPi2-2" value="Type" style="rounded=0;whiteSpace=wrap;html=1;fillColor=#dae8fc;strokeColor=#6c8ebf;" vertex="1" parent="z8kUtgGK6EM0KyuAb-qd-1">
          <mxGeometry x="360" y="600" width="95" height="20" as="geometry" />
        </mxCell>
        <mxCell id="YyjC_6df4hxj99kcXPi2-3" value="Risk (1-10)" style="rounded=0;whiteSpace=wrap;html=1;fillColor=#dae8fc;strokeColor=#6c8ebf;" vertex="1" parent="z8kUtgGK6EM0KyuAb-qd-1">
          <mxGeometry x="455" y="600" width="95" height="20" as="geometry" />
        </mxCell>
        <mxCell id="YyjC_6df4hxj99kcXPi2-4" value="user@example.com" style="rounded=0;whiteSpace=wrap;html=1;" vertex="1" parent="z8kUtgGK6EM0KyuAb-qd-1">
          <mxGeometry x="230" y="620" width="130" height="20" as="geometry" />
        </mxCell>
        <mxCell id="YyjC_6df4hxj99kcXPi2-5" value="Meta" style="rounded=0;whiteSpace=wrap;html=1;fillColor=#dae8fc;strokeColor=#6c8ebf;" vertex="1" parent="z8kUtgGK6EM0KyuAb-qd-1">
          <mxGeometry x="640" y="600" width="90" height="20" as="geometry" />
        </mxCell>
        <mxCell id="YyjC_6df4hxj99kcXPi2-6" value="user" style="rounded=0;whiteSpace=wrap;html=1;" vertex="1" parent="z8kUtgGK6EM0KyuAb-qd-1">
          <mxGeometry x="360" y="620" width="100" height="20" as="geometry" />
        </mxCell>
        <mxCell id="YyjC_6df4hxj99kcXPi2-7" value="(1) low" style="rounded=0;whiteSpace=wrap;html=1;fillColor=#d5e8d4;strokeColor=#82b366;" vertex="1" parent="z8kUtgGK6EM0KyuAb-qd-1">
          <mxGeometry x="455" y="620" width="95" height="20" as="geometry" />
        </mxCell>
        <mxCell id="YyjC_6df4hxj99kcXPi2-8" value="{...}" style="rounded=0;whiteSpace=wrap;html=1;" vertex="1" parent="z8kUtgGK6EM0KyuAb-qd-1">
          <mxGeometry x="640" y="620" width="90" height="20" as="geometry" />
        </mxCell>
        <mxCell id="YyjC_6df4hxj99kcXPi2-9" value="4.2.2.2" style="rounded=0;whiteSpace=wrap;html=1;" vertex="1" parent="z8kUtgGK6EM0KyuAb-qd-1">
          <mxGeometry x="230" y="640" width="130" height="20" as="geometry" />
        </mxCell>
        <mxCell id="YyjC_6df4hxj99kcXPi2-10" value="ipv4" style="rounded=0;whiteSpace=wrap;html=1;" vertex="1" parent="z8kUtgGK6EM0KyuAb-qd-1">
          <mxGeometry x="360" y="640" width="100" height="20" as="geometry" />
        </mxCell>
        <mxCell id="YyjC_6df4hxj99kcXPi2-11" value="(2) normal" style="rounded=0;whiteSpace=wrap;html=1;fillColor=#fff2cc;strokeColor=#d6b656;" vertex="1" parent="z8kUtgGK6EM0KyuAb-qd-1">
          <mxGeometry x="455" y="640" width="95" height="20" as="geometry" />
        </mxCell>
        <mxCell id="YyjC_6df4hxj99kcXPi2-12" value="{...}" style="rounded=0;whiteSpace=wrap;html=1;" vertex="1" parent="z8kUtgGK6EM0KyuAb-qd-1">
          <mxGeometry x="640" y="640" width="90" height="20" as="geometry" />
        </mxCell>
        <mxCell id="YyjC_6df4hxj99kcXPi2-13" value="Last Mod." style="rounded=0;whiteSpace=wrap;html=1;fillColor=#dae8fc;strokeColor=#6c8ebf;" vertex="1" parent="z8kUtgGK6EM0KyuAb-qd-1">
          <mxGeometry x="550" y="600" width="90" height="20" as="geometry" />
        </mxCell>
        <mxCell id="YyjC_6df4hxj99kcXPi2-14" value="tz" style="rounded=0;whiteSpace=wrap;html=1;" vertex="1" parent="z8kUtgGK6EM0KyuAb-qd-1">
          <mxGeometry x="550" y="620" width="90" height="20" as="geometry" />
        </mxCell>
        <mxCell id="YyjC_6df4hxj99kcXPi2-15" value="tz" style="rounded=0;whiteSpace=wrap;html=1;" vertex="1" parent="z8kUtgGK6EM0KyuAb-qd-1">
          <mxGeometry x="550" y="640" width="90" height="20" as="geometry" />
        </mxCell>
        <mxCell id="YyjC_6df4hxj99kcXPi2-16" value="4.2.2.2" style="rounded=0;whiteSpace=wrap;html=1;" vertex="1" parent="z8kUtgGK6EM0KyuAb-qd-1">
          <mxGeometry x="230" y="660" width="130" height="20" as="geometry" />
        </mxCell>
      </root>
    </mxGraphModel>
  </diagram>
</mxfile>
